<svg width="1600" height="960" viewBox="0 0 1600 960" fill="none" xmlns="http://www.w3.org/2000/svg">
  <rect width="1600" height="960" fill="#090A0D"/>
  <rect width="1600" height="960" fill="url(#bg)"/>
  <circle cx="1256" cy="188" r="220" fill="#4CC9FF" fill-opacity="0.18"/>
  <circle cx="324" cy="742" r="240" fill="#8B5CF6" fill-opacity="0.16"/>
  <circle cx="976" cy="662" r="180" fill="#4CC9FF" fill-opacity="0.08"/>
  <g opacity="0.6">
    <rect x="148" y="146" width="560" height="316" rx="28" fill="url(#panel)" stroke="rgba(255,255,255,0.10)"/>
    <rect x="196" y="214" width="214" height="142" rx="22" fill="#0F1726" stroke="#1E2B41"/>
    <rect x="438" y="214" width="214" height="142" rx="22" fill="#0F1726" stroke="#1E2B41"/>
    <rect x="196" y="388" width="456" height="34" rx="17" fill="#0F1726" stroke="#1E2B41"/>
    <rect x="948" y="246" width="480" height="236" rx="28" fill="#0D1118" stroke="#222B3C"/>
    <rect x="996" y="302" width="384" height="18" rx="9" fill="#4CC9FF" fill-opacity="0.42"/>
    <rect x="996" y="340" width="250" height="14" rx="7" fill="#DCE1E8" fill-opacity="0.18"/>
    <rect x="996" y="372" width="320" height="14" rx="7" fill="#DCE1E8" fill-opacity="0.14"/>
    <rect x="996" y="404" width="204" height="14" rx="7" fill="#DCE1E8" fill-opacity="0.12"/>
  </g>
  <g opacity="0.14">
    <path d="M0 544H1600" stroke="#DCE1E8"/>
    <path d="M0 640H1600" stroke="#DCE1E8"/>
    <path d="M0 736H1600" stroke="#DCE1E8"/>
    <path d="M0 832H1600" stroke="#DCE1E8"/>
    <path d="M256 0V960" stroke="#DCE1E8"/>
    <path d="M512 0V960" stroke="#DCE1E8"/>
    <path d="M768 0V960" stroke="#DCE1E8"/>
    <path d="M1024 0V960" stroke="#DCE1E8"/>
    <path d="M1280 0V960" stroke="#DCE1E8"/>
  </g>
  <defs>
    <linearGradient id="bg" x1="152" y1="92" x2="1462" y2="866" gradientUnits="userSpaceOnUse">
      <stop stop-color="#101726"/>
      <stop offset="0.52" stop-color="#0A0D13"/>
      <stop offset="1" stop-color="#140F23"/>
    </linearGradient>
    <linearGradient id="panel" x1="194" y1="146" x2="670" y2="462" gradientUnits="userSpaceOnUse">
      <stop stop-color="#172335"/>
      <stop offset="1" stop-color="#0C1017"/>
    </linearGradient>
  </defs>
</svg>
